<?xml version="1.0" encoding="utf-8"?>
<svg viewBox="208.0938 210.1691 53.1611 53.1611" width="53.161" height="53.161" xmlns="http://www.w3.org/2000/svg">
  <defs>
    <linearGradient data-v-fde0c5aa="" gradientTransform="rotate(25)" id="731d991d-ee0b-4eff-8b20-aeb3cb5817b4" x1="0%" y1="0%" x2="100%" y2="0%">
      <stop data-v-fde0c5aa="" offset="0" stop-color="#288B58" stop-opacity="1"/>
      <stop data-v-fde0c5aa="" offset="1" stop-color="#1522F1" stop-opacity="1"/>
    </linearGradient>
  </defs>
  <rect x="214.878" y="216.315" width="41.507" height="38.953" style="fill: rgb(255, 255, 255); stroke: rgb(255, 255, 255);"/>
  <g data-v-fde0c5aa="" id="e6eb0a82-6354-49a8-8d11-122b61089378" stroke="none" fill="url(#731d991d-ee0b-4eff-8b20-aeb3cb5817b4)" transform="matrix(1.661283016204834, 0, 0, 1.661283016204834, 208.0937988772064, 210.16911629094352)">
    <path d="M32 0H0v32h32V0zm-8.677 20.802l-2.52 2.52L16 28.125l-2.52-2.52 4.802-4.802L16 18.52l-4.802 4.802-2.52-2.52L13.48 16l-2.282-2.282-4.803 4.802L3.875 16l4.802-4.802 2.52-2.52L16 3.875l2.52 2.52-4.802 4.802L16 13.48l4.802-4.802 2.52 2.52L18.52 16l2.282 2.282 4.802-4.802 2.52 2.52-4.801 4.802z"/>
  </g>
</svg>