<?xml version="1.0" encoding="utf-8"?>
<svg viewBox="127.98 222.149 235.398 64.396" xmlns="http://www.w3.org/2000/svg">
  <defs>
    <linearGradient data-v-fde0c5aa="" gradientTransform="rotate(25)" id="731d991d-ee0b-4eff-8b20-aeb3cb5817b4" x1="0%" y1="0%" x2="100%" y2="0%">
      <stop data-v-fde0c5aa="" offset="0" stop-color="#288B58" stop-opacity="1"/>
      <stop data-v-fde0c5aa="" offset="1" stop-color="#1522F1" stop-opacity="1"/>
    </linearGradient>
  </defs>
  <rect data-v-fde0c5aa="" fill="#DEE5F3" x="127.98" y="222.149" width="235.398" height="64.396" class="logo-background-square" style="" transform="matrix(1, 0, 0, 1, 7.105427357601002e-15, 0)"/>
  <g data-v-fde0c5aa="" id="deea790d-85df-4f30-be28-331d6d449a2c" fill="#0C203C" transform="matrix(3.7503399848937993, 0, 0, 3.7503399848937993, 197.54941090269995, 231.3667179251718)">
    <path d="M3.46 6.76L3.46 8.65L7.62 8.65L7.62 10.50L0.87 10.50L0.84 1.34L7.48 1.34L7.18 3.21L3.46 3.21L3.46 4.90L7.32 4.90L7.32 6.76L3.46 6.76ZM8.72 7.66L8.72 5.81L12.52 5.81L12.52 7.66L8.72 7.66ZM19.96 2.25L19.21 4.16Q18.62 3.75 18.02 3.50Q17.42 3.25 16.93 3.25L16.93 3.25Q16.48 3.25 16.27 3.35Q16.06 3.46 16.06 3.82L16.06 3.82Q16.06 4.23 16.42 4.44Q16.79 4.65 17.37 4.84L17.37 4.84Q17.86 5.01 18.37 5.21Q18.87 5.42 19.28 5.75Q19.68 6.08 19.94 6.58Q20.19 7.08 20.19 7.84L20.19 7.84Q20.19 8.57 19.91 9.10Q19.63 9.63 19.17 9.97Q18.70 10.32 18.11 10.49Q17.51 10.65 16.87 10.65L16.87 10.65Q15.96 10.65 15.05 10.27Q14.14 9.88 13.44 9.13L13.44 9.13L14.25 7.24Q14.90 7.90 15.56 8.26Q16.23 8.62 16.83 8.62L16.83 8.62Q17.33 8.62 17.65 8.50Q17.98 8.37 17.99 7.97L17.99 7.97Q17.99 7.73 17.88 7.57Q17.78 7.41 17.59 7.30Q17.40 7.20 17.14 7.11Q16.87 7.03 16.58 6.93L16.58 6.93Q16.09 6.76 15.60 6.55Q15.12 6.34 14.73 6.00Q14.34 5.66 14.10 5.16Q13.86 4.66 13.86 3.93L13.86 3.93Q13.86 3.21 14.13 2.69Q14.39 2.17 14.83 1.84Q15.26 1.51 15.83 1.36Q16.39 1.20 17.00 1.20L17.00 1.20Q17.77 1.20 18.54 1.48Q19.31 1.76 19.96 2.25L19.96 2.25ZM29.53 1.34L29.53 1.34L33.40 1.36L33.40 10.51L30.86 10.50L30.86 3.49L28.59 10.50L26.21 10.50L24.09 3.49L24.09 10.50L21.52 10.50L21.52 1.34L25.51 1.34L27.47 7.43L29.53 1.34ZM37.70 6.76L37.70 8.65L41.86 8.65L41.86 10.50L35.11 10.50L35.08 1.34L41.72 1.34L41.43 3.21L37.70 3.21L37.70 4.90L41.57 4.90L41.57 6.76L37.70 6.76Z"/>
  </g>
  <g data-v-fde0c5aa="" id="e6eb0a82-6354-49a8-8d11-122b61089378" stroke="none" fill="url(#731d991d-ee0b-4eff-8b20-aeb3cb5817b4)" transform="matrix(1.661283016204834, 0, 0, 1.661283016204834, 134.53863725868814, 227.00694613169048)">
    <path d="M32 0H0v32h32V0zm-8.677 20.802l-2.52 2.52L16 28.125l-2.52-2.52 4.802-4.802L16 18.52l-4.802 4.802-2.52-2.52L13.48 16l-2.282-2.282-4.803 4.802L3.875 16l4.802-4.802 2.52-2.52L16 3.875l2.52 2.52-4.802 4.802L16 13.48l4.802-4.802 2.52 2.52L18.52 16l2.282 2.282 4.802-4.802 2.52 2.52-4.801 4.802z"/>
  </g>
</svg>